<svg xmlns="http://www.w3.org/2000/svg" viewBox="0.00 0.00 1280.00 772.00"><g fill="#f60a0a"><path d="M368.27 772H.04l58.85-47.33a4.4 4.27 85.1 0 0 1.16-1.42L173.1 501.26a.32.31-57.3 0 0-.08-.4l-61.68-47.04q-.85-.64.22-.64h218.72a.38.38 0 0 1 .34.56L209.35 691.85a.3.29-76.4 0 0 .26.43h198.85a.26.26 0 0 1 .23.38zM548.71 772H415.39l137.75-270.41a.76.76 0 0 0-.22-.94l-61.53-46.93q-.72-.54.18-.54h429.69a1.71 1.68-26.1 0 1 1.02.34l69.93 53.33q.41.31.17.77-28.59 56.13-44.34 86.97c-21.97 43.02-63.19 71.53-111.33 77q-7.01.8-19.95.78-40.69-.04-142.2.02a1.54 1.52 63.3 0 1-.92-.31l-53.06-40.47a.27.26 31.5 0 0-.4.09zm91.63-179.92a.35.35 0 0 0 .31.51q21.42-.03 139.35-.01 11.68 0 17.41-1.38 15.02-3.63 25.13-15.16 4.08-4.66 9.79-15.82 5.09-9.97 13.6-26.83.26-.52-.32-.52h-174.4q-.72 0-1.04.64z"/><path d="M1239.36 772H871.25l58.48-47.12a5.98 5.95-6.2 0 0 1.54-1.9l112.94-221.75a.29.29 0 0 0-.08-.36l-61.7-47.05q-.84-.64.22-.64h218.64a.43.43 0 0 1 .39.62l-121.16 237.88q-.3.6.37.6h198.41q.66 0 .36.59z"/></g><g fill="#f60a0a"><path d="M864.53 123.08h-105.2a2.11 2 56.9 0 1-.92-.22L597.35 43.6q-.85-.42.1-.42h397.4q.59 0 .32.53L851.19 326.43a.22.22 0 0 1-.33.07L428.16 4.15q-2.44-1.86.31-.5l397.48 195.6a.34.33-63.4 0 0 .44-.15l38.46-75.5q.26-.52-.32-.52M617.18 282.32a.25.25 0 0 0 .21-.39L499.96 108.8q-.97-1.43.4-.39L832.24 361.5q.86.66-.23.66H369.74a.12.12 0 0 1-.11-.18l108.38-212.79q.44-.87.98-.07l50.58 74.58a.31.29 43.2 0 1 .02.32l-29.38 57.7q-.31.6.37.6z"/></g></svg>