<svg xmlns="http://www.w3.org/2000/svg" width="63.13" height="64" fill="none" viewBox="0 0 63.13 64"><path d="M31.568 0C14.159 0 0 14.355 0 32s14.164 32 31.568 32C48.97 64 63.13 49.645 63.13 32S48.976 0 31.567 0m.073 4.701c3.69 2.982 6.316 7.307 7.458 9.414q.106.165.207.337a33 33 0 0 1 1.489 2.772c1.191 2.472 2.174 5.046 3.168 7.608.157.409.054 1.183-.234 1.46-2.872 2.68-4.458 6.134-5.704 9.72-.918 2.63-1.5 5.168-2.201 7.874-.136.522-.27 1.157-.423 1.875-3.56-1.619-6.681-3.823-9.525-6.411-.45-.408-.506-1.318-.62-2.02h-.001c-.637-3.773-2.507-6.934-4.923-9.793-.752-.888-1.189-1.763-.788-2.86.756-2.086 1.473-4.193 2.408-6.195a33 33 0 0 1 1.56-2.942c2.689-5.354 8.13-10.839 8.13-10.839m-16.464 8.972q-.105.421-.12.855c-.01.744-.036 1.5-.057 2.236-.067 2.099-.135 4.274.096 6.394.542 5.02 2.538 9.555 5.94 13.489 3.619 4.19 8.108 7.742 14.117 11.193 1.117.642 2.26 1.216 3.472 1.829.386.195.788.399 1.192.607-2.465 2.486-5.079 6.066-5.883 9.922-.506-.5-.949-.973-.949-.973s.317-2.065.544-2.784c.398-1.31.757-2.603 1.14-3.976.17-.595.338-1.212.518-1.833l.099-.344-.315-.18c-.468-.26-.943-.527-1.428-.79-1.05-.59-2.131-1.19-3.182-1.832-5.413-3.292-11.588-7.478-16.369-13.525-2.425-3.072-3.876-5.796-4.565-8.564-.188-.769-.087-1.835.287-2.927a23 23 0 0 1 5.156-8.507 3 3 0 0 1 .307-.29m32.693.01a18.7 18.7 0 0 1 3.46 4.453c1.04 1.882 1.752 3.43 2.236 4.875.238.718.22 1.732-.052 2.73-1.453 5.359-5.054 9.326-8.023 12.177-1.746 1.674-3.722 3.192-5.635 4.661-.805.617-1.632 1.258-2.44 1.9.014-.093.032-.186.044-.28.28-1.768.522-3.299 1.698-4.475 2.606-2.614 5.515-5.74 7.001-9.72a32 32 0 0 0 1.821-7.403c.23-1.908.164-3.867.096-5.758-.021-.62-.044-1.26-.056-1.89-.005-.417-.068-.823-.15-1.27m-19.64.776c-1.424 2.259-2.644 4.182-3.85 6.107-.34.543-.13.951.245 1.45 2.41 3.153 3.576 6.847 4.259 10.684.337 1.895.404 3.838.523 5.763.047.781.385 1.21 1.09 1.447.807.277 1.602.57 2.466.88.158-1.432.33-2.805.45-4.178.46-5.303 2.109-10.216 4.824-14.788.22-.375.344-.995.192-1.369-.889-2.163-2.462-3.846-4.156-5.71-.937 1.957-1.606 3.736-2.632 5.89-1.108-2.112-2.264-3.983-3.41-6.176m11.122 8.623c-3.21 4.933-4.404 10.359-4.28 16.14.09.017.175.03.263.052.187-.569.422-1.136.553-1.723.859-3.794 2.633-7.191 4.578-10.5.812-1.382.435-3.047-1.114-3.969m-16.447.05c-.348.696-.765 1.367-1.024 2.088h.002c-.132.378-.145.965.064 1.27 2.427 3.527 4.048 7.39 5.008 11.555.068.293.345.548.565.875 1.667-2.762-1.75-14.263-4.615-15.789M7.721 27.765c3.664 8.082 9.805 13.476 15.627 17.661-1.836-.307-3.396-1.272-4.849-2.256a259 259 0 0 1-10.262-7.283c-.464-.344-.878-1.216-.882-1.87-.009-1.703.137-3.45.273-5.132q.05-.566.093-1.12m47.73.211c.176.498.32.97.324 1.43.005 1.72-.15 3.48-.295 5.183l-.066.76c-.002.076-.149.29-.361.452l-.708.53c-4.02 3.028-8.185 6.154-12.732 8.5-.638.331-1.363.501-2.13.671 9.807-6.94 13.766-12.91 15.968-17.526m-5.8 16.516c-.068.056-.14.102-.209.153-2.055 1.406-4.422 2.669-6.44 3.968-.233.15-.564.319-.725.263-.256-.044-1.842-.864-2.848-1.368l-.035-.02zm-35.59.126 9.84 2.86c-.957.476-1.577.85-2.576 1.312a1.2 1.2 0 0 1-.418.081.6.6 0 0 1-.164-.02c-2.114-1.427-4.608-2.789-6.682-4.233m12.715 3.826c.11.25.224.492.331.735.397.879.766 1.698 1.055 2.56.412 1.24.763 2.539 1.103 3.792q.216.797.445 1.595c.13.478.585 2.1.585 2.1l-.951.979c-.685-3.845-3.917-7.264-6.404-9.852zm3.079 1.452a92 92 0 0 1 2.76 1.49.7.7 0 0 1 .095.24 159 159 0 0 1-1.042 3.706z" style="fill:#000"/></svg>